<svg width="77" height="13" viewBox="0 0 77 13" fill="none" xmlns="http://www.w3.org/2000/svg">
<path d="M9 12H7.544L1.688 3.12V12H0.232V0.832H1.688L7.544 9.696V0.832H9V12ZM10.938 6.416C10.938 5.328 11.1833 4.352 11.674 3.488C12.1647 2.61333 12.8313 1.93067 13.674 1.44C14.5273 0.949333 15.4713 0.704 16.506 0.704C17.722 0.704 18.7833 0.997333 19.69 1.584C20.5967 2.17067 21.258 3.00267 21.674 4.08H19.93C19.6207 3.408 19.1727 2.89067 18.586 2.528C18.01 2.16533 17.3167 1.984 16.506 1.984C15.7273 1.984 15.0287 2.16533 14.41 2.528C13.7913 2.89067 13.306 3.408 12.954 4.08C12.602 4.74133 12.426 5.52 12.426 6.416C12.426 7.30133 12.602 8.08 12.954 8.752C13.306 9.41333 13.7913 9.92533 14.41 10.288C15.0287 10.6507 15.7273 10.832 16.506 10.832C17.3167 10.832 18.01 10.656 18.586 10.304C19.1727 9.94133 19.6207 9.424 19.93 8.752H21.674C21.258 9.81867 20.5967 10.6453 19.69 11.232C18.7833 11.808 17.722 12.096 16.506 12.096C15.4713 12.096 14.5273 11.856 13.674 11.376C12.8313 10.8853 12.1647 10.208 11.674 9.344C11.1833 8.48 10.938 7.504 10.938 6.416Z" fill="#FB8500"/>
<path d="M32.2894 4.08C31.98 3.42933 31.532 2.928 30.9454 2.576C30.3587 2.21333 29.676 2.032 28.8974 2.032C28.1187 2.032 27.4147 2.21333 26.7854 2.576C26.1667 2.928 25.676 3.44 25.3134 4.112C24.9614 4.77333 24.7854 5.54133 24.7854 6.416C24.7854 7.29067 24.9614 8.05867 25.3134 8.72C25.676 9.38133 26.1667 9.89333 26.7854 10.256C27.4147 10.608 28.1187 10.784 28.8974 10.784C29.9854 10.784 30.8814 10.4587 31.5854 9.808C32.2894 9.15733 32.7 8.27733 32.8174 7.168H28.3694V5.984H34.3694V7.104C34.284 8.02133 33.996 8.864 33.5054 9.632C33.0147 10.3893 32.3694 10.992 31.5694 11.44C30.7694 11.8773 29.8787 12.096 28.8974 12.096C27.8627 12.096 26.9187 11.856 26.0654 11.376C25.212 10.8853 24.5347 10.208 24.0334 9.344C23.5427 8.48 23.2974 7.504 23.2974 6.416C23.2974 5.328 23.5427 4.352 24.0334 3.488C24.5347 2.61333 25.212 1.936 26.0654 1.456C26.9187 0.965333 27.8627 0.719999 28.8974 0.719999C30.0814 0.719999 31.1267 1.01333 32.0334 1.6C32.9507 2.18667 33.6174 3.01333 34.0334 4.08H32.2894ZM42.8865 9.52H38.0225L37.1265 12H35.5905L39.6225 0.912H41.3025L45.3185 12H43.7825L42.8865 9.52ZM42.4705 8.336L40.4545 2.704L38.4385 8.336H42.4705ZM58.3878 0.927999V12H56.9318V3.744L53.2518 12H52.2278L48.5318 3.728V12H47.0758V0.927999H48.6438L52.7398 10.08L56.8358 0.927999H58.3878ZM62.313 2.032V5.76H66.377V6.96H62.313V10.8H66.857V12H60.857V0.832H66.857V2.032H62.313ZM72.5961 12.112C71.8601 12.112 71.1988 11.984 70.6121 11.728C70.0361 11.4613 69.5828 11.0987 69.2521 10.64C68.9215 10.1707 68.7508 9.632 68.7401 9.024H70.2921C70.3455 9.54667 70.5588 9.98933 70.9321 10.352C71.3161 10.704 71.8708 10.88 72.5961 10.88C73.2895 10.88 73.8335 10.7093 74.2281 10.368C74.6335 10.016 74.8361 9.568 74.8361 9.024C74.8361 8.59733 74.7188 8.25067 74.4841 7.984C74.2495 7.71733 73.9561 7.51467 73.6041 7.376C73.2521 7.23733 72.7775 7.088 72.1801 6.928C71.4441 6.736 70.8521 6.544 70.4041 6.352C69.9668 6.16 69.5881 5.86133 69.2681 5.456C68.9588 5.04 68.8041 4.48533 68.8041 3.792C68.8041 3.184 68.9588 2.64533 69.2681 2.176C69.5775 1.70667 70.0095 1.344 70.5641 1.088C71.1295 0.831999 71.7748 0.704 72.5001 0.704C73.5455 0.704 74.3988 0.965333 75.0601 1.488C75.7321 2.01067 76.1108 2.704 76.1961 3.568H74.5961C74.5428 3.14133 74.3188 2.768 73.9241 2.448C73.5295 2.11733 73.0068 1.952 72.3561 1.952C71.7481 1.952 71.2521 2.112 70.8681 2.432C70.4841 2.74133 70.2921 3.17867 70.2921 3.744C70.2921 4.14933 70.4041 4.48 70.6281 4.736C70.8628 4.992 71.1455 5.18933 71.4761 5.328C71.8175 5.456 72.2921 5.60533 72.9001 5.776C73.6361 5.97867 74.2281 6.18133 74.6761 6.384C75.1241 6.576 75.5081 6.88 75.8281 7.296C76.1481 7.70133 76.3081 8.256 76.3081 8.96C76.3081 9.504 76.1641 10.016 75.8761 10.496C75.5881 10.976 75.1615 11.3653 74.5961 11.664C74.0308 11.9627 73.3641 12.112 72.5961 12.112Z" fill="#222222"/>
</svg>
